<svg width="557" height="59" viewBox="0 0 557 59" fill="none" xmlns="http://www.w3.org/2000/svg">
<path d="M58.2 9H40.2L49.2 0H0V49.2L9 40.2V58.1L58.2 9ZM2.5 2.5H43L36.6 9H9V36.7L2.6 43.1V2.5H2.5ZM11.5 52.1V37.7L37.7 11.5H52.1L11.5 52.1ZM11.5 11.5H34.1L11.5 34.1V11.5Z" fill="black"/>
<path d="M397.2 15.6L383.2 28.2L369.2 15.6H363.6L381.1 31.4V42.6H385.4V31.4L402.8 15.6H397.2Z" fill="black"/>
<path d="M357.4 15.6L346.2 26.7H337.5V15.6H333.1V42.6H337.5V30.2H346.3L357.4 42.5L357.5 42.6H362.6L349.8 28.2L362.7 15.6H357.4Z" fill="black"/>
<path d="M319.9 26.6H304.6C302 26.6 300.6 25.5 300.6 23.5V22.1C300.6 20.1 302 19 304.6 19H326.8V15.5H304.6C297.7 15.5 296.3 19.1 296.3 22.1V23.4C296.3 26.4 297.7 30 304.6 30H319.9C322.4 30 323.9 31.1 323.9 33.1V36C323.9 37.9 322.4 39.1 319.9 39.1H297.1V42.6H319.9C323.7 42.6 328.2 41.5 328.2 36V33.1C328.2 30.1 326.8 26.6 319.9 26.6Z" fill="black"/>
<path d="M228.4 19.1H242.6V42.6H246.9V19.1H260.6V15.6H228.4V19.1Z" fill="black"/>
<path d="M212.4 15.6L194.5 42.6H199.3L213.9 20.2L228.3 42.6H233.2L215.4 15.6H212.4Z" fill="black"/>
<path d="M196.3 15.6L181.8 38L167.4 15.7L167.3 15.6H162.4L180.2 42.5V42.6H183.3L201.1 15.6H196.3Z" fill="black"/>
<path d="M159.1 15.6H154.8V42.6H159.1V15.6Z" fill="black"/>
<path d="M106.6 15.6H85.2V19.1H104.4C109.1 19.1 110.7 19.9 110.7 22.2V26C110.7 28.1 109.2 29.1 106.1 29.1H85.2V42.6H89.5V32.6H106.6C113.5 32.6 115 29 115 26V22.3C115 19.2 113.5 15.6 106.6 15.6Z" fill="black"/>
<path d="M141.5 15.6H119.3V19.1H141.5C144.2 19.1 145.5 20.1 145.5 22.2V24.1C145.5 26 144 27.2 141.5 27.2H119.3V42.6H123.6V30.7H138.5L145 42.6H149.6L143 30.6C147.3 30.2 149.7 27.9 149.7 24.1V22.3C149.8 16.7 145.3 15.6 141.5 15.6Z" fill="black"/>
<path d="M269 30.1H290.7V26.6H264.7V42.6H291.8V39.1H269V30.1Z" fill="black"/>
<path d="M291.8 15.6H264.7V19.1H291.8V15.6Z" fill="black"/>
<path d="M494 15.6V31V31C494 36.1915 498.209 40.4 503.4 40.4H510.1C515.291 40.4 519.5 36.1915 519.5 31V31V15.6" stroke="#1442CC" stroke-width="4.3"/>
<path d="M419 19.1H433.2V42.6H437.5V19.1H451.2V15.6H419V19.1Z" fill="#1442CC"/>
<path d="M548.7 15.6H526.5V19.1H548.7C551.4 19.1 552.7 20.1 552.7 22.2V24.1C552.7 26 551.2 27.2 548.7 27.2H526.5V42.6H530.8V30.7H545.7L552.2 42.6H556.8L550.2 30.6C554.5 30.2 556.9 27.9 556.9 24.1V22.3C557 16.7 552.5 15.6 548.7 15.6Z" fill="#1442CC"/>
<path fill-rule="evenodd" clip-rule="evenodd" d="M470 42.6C479.389 42.6 487 36.5558 487 29.1C487 21.6442 479.389 15.6 470 15.6C460.611 15.6 453 21.6442 453 29.1C453 36.5558 460.611 42.6 470 42.6ZM470 38.3C477.014 38.3 482.7 34.181 482.7 29.1C482.7 24.019 477.014 19.9 470 19.9C462.986 19.9 457.3 24.019 457.3 29.1C457.3 34.181 462.986 38.3 470 38.3Z" fill="#1442CC"/>
</svg>
